<?xml version="1.0" standalone="no"?>
<!DOCTYPE svg PUBLIC "-//W3C//DTD SVG 20010904//EN"
 "http://www.w3.org/TR/2001/REC-SVG-20010904/DTD/svg10.dtd">
<svg version="1.0" xmlns="http://www.w3.org/2000/svg"
 width="550.000000pt" height="550.000000pt" viewBox="0 0 550.000000 550.000000"
 preserveAspectRatio="xMidYMid meet">
<metadata>
Created by potrace 1.11, written by Peter Selinger 2001-2013
</metadata>
<g transform="translate(0.000000,550.000000) scale(0.100000,-0.100000)"
fill="#000000" stroke="none">
<path d="M1754 4373 c8 -16 77 -136 154 -268 81 -138 137 -244 133 -250 -5 -5
-19 -30 -33 -55 -23 -41 -169 -295 -435 -753 -57 -98 -103 -181 -103 -183 0
-3 -9 -17 -19 -32 -10 -15 -99 -166 -196 -337 -98 -170 -193 -335 -211 -365
-36 -62 -427 -738 -486 -842 -21 -37 -38 -70 -38 -73 0 -3 183 -4 406 -3 l407
3 37 61 c21 34 44 75 52 90 8 16 70 123 137 238 66 115 121 211 121 213 0 2 8
16 19 31 10 15 74 124 141 242 68 118 147 256 176 305 29 50 140 242 246 427
l195 337 39 -67 c21 -37 43 -76 50 -87 6 -11 87 -153 181 -315 93 -162 181
-315 195 -340 14 -25 83 -144 153 -265 70 -121 137 -238 150 -260 51 -90 150
-262 267 -465 l84 -145 102 -3 c56 -1 102 0 102 4 0 6 -110 200 -252 442 l-49
84 22 36 c12 21 30 52 41 70 10 18 53 93 95 165 42 73 119 206 171 297 52 91
135 235 185 320 103 179 121 209 155 269 14 25 38 68 55 95 16 28 100 173 185
321 85 149 163 284 173 300 10 17 40 68 67 115 27 47 100 175 164 285 198 342
218 378 218 381 0 2 -184 4 -408 4 l-409 0 -11 -22 c-6 -13 -24 -45 -40 -73
-16 -27 -71 -122 -122 -210 -100 -171 -346 -599 -378 -657 -11 -20 -39 -66
-61 -103 -23 -37 -41 -68 -41 -70 0 -1 -46 -81 -101 -176 -56 -96 -110 -190
-121 -209 -105 -186 -243 -420 -248 -420 -3 0 -35 50 -70 112 -36 62 -70 121
-77 133 -7 11 -16 27 -20 35 -4 8 -33 59 -65 113 -32 54 -58 101 -58 103 0 3
-8 17 -19 32 -10 15 -141 241 -291 502 -150 261 -285 495 -300 520 -15 25 -42
72 -61 105 -19 33 -41 72 -49 86 -8 14 -37 65 -64 112 l-50 87 -103 0 -104 0
15 -27z"/>
</g>
</svg>
